<svg width="682" height="660" viewBox="0 0 682 660" fill="none" xmlns="http://www.w3.org/2000/svg">
    <g filter="url(#filter0_f_1202_234)">
    <path d="M584.228 392.56C573.22 445.294 548.32 493.866 509.529 538.274C470.738 582.682 421.2 606.274 360.917 609.05C300.633 611.825 245.067 594.617 194.22 557.425C143.372 520.233 101.697 470.274 69.1968 407.547C36.6961 344.821 47.4423 290.421 101.435 244.347C155.428 198.274 199.986 158.306 235.108 124.445C270.229 90.5837 314 68.1021 366.421 57C418.841 45.8979 479.649 48.6735 548.844 65.3265C618.039 81.9796 643.987 127.498 626.689 201.882C609.39 276.266 595.236 339.825 584.228 392.56Z" fill="#FE9D66" fill-opacity="0.3"/>
    </g>
    <defs>
    <filter id="filter0_f_1202_234" x="0.878174" y="0.338867" width="681" height="659" filterUnits="userSpaceOnUse" color-interpolation-filters="sRGB">
    <feFlood flood-opacity="0" result="BackgroundImageFix"/>
    <feBlend mode="normal" in="SourceGraphic" in2="BackgroundImageFix" result="shape"/>
    <feGaussianBlur stdDeviation="25" result="effect1_foregroundBlur_1202_234"/>
    </filter>
    </defs>
    </svg>
